<mxfile host="Electron" agent="Mozilla/5.0 (Windows NT 10.0; Win64; x64) AppleWebKit/537.36 (KHTML, like Gecko) draw.io/26.0.9 Chrome/128.0.6613.186 Electron/32.2.5 Safari/537.36" version="26.0.9">
  <diagram name="Страница — 1" id="wbUGCKGPdH9G5RGJiJrk">
    <mxGraphModel dx="1052" dy="695" grid="1" gridSize="10" guides="1" tooltips="1" connect="1" arrows="1" fold="1" page="1" pageScale="1" pageWidth="827" pageHeight="1169" math="0" shadow="0">
      <root>
        <mxCell id="0" />
        <mxCell id="1" parent="0" />
        <mxCell id="9cu6b4uCCpkuQWn9HonN-1" value="&lt;font style=&quot;font-size: 16px;&quot;&gt;&lt;b&gt;Состояние книги&lt;/b&gt;&lt;/font&gt;" style="shape=note;whiteSpace=wrap;html=1;backgroundOutline=1;darkOpacity=0.05;" vertex="1" parent="1">
          <mxGeometry x="330" y="10" width="190" height="100" as="geometry" />
        </mxCell>
        <mxCell id="9cu6b4uCCpkuQWn9HonN-3" value="" style="ellipse;html=1;shape=startState;fillColor=#000000;strokeColor=#ff0000;" vertex="1" parent="1">
          <mxGeometry x="100" y="140" width="30" height="30" as="geometry" />
        </mxCell>
        <mxCell id="9cu6b4uCCpkuQWn9HonN-5" value="Книга доступна" style="swimlane;fontStyle=1;align=center;verticalAlign=middle;childLayout=stackLayout;horizontal=1;startSize=30;horizontalStack=0;resizeParent=0;resizeLast=1;container=0;fontColor=#000000;collapsible=0;rounded=1;arcSize=30;strokeColor=#ff0000;fillColor=#ffffc0;swimlaneFillColor=#ffffc0;dropTarget=0;fontSize=14;" vertex="1" parent="1">
          <mxGeometry x="40" y="230" width="160" height="60" as="geometry" />
        </mxCell>
        <mxCell id="9cu6b4uCCpkuQWn9HonN-6" value="do/запрос на книгу" style="text;html=1;strokeColor=none;fillColor=none;align=center;verticalAlign=middle;spacingLeft=4;spacingRight=4;whiteSpace=wrap;overflow=hidden;rotatable=0;fontColor=#000000;fontSize=14;" vertex="1" parent="9cu6b4uCCpkuQWn9HonN-5">
          <mxGeometry y="30" width="160" height="30" as="geometry" />
        </mxCell>
        <mxCell id="9cu6b4uCCpkuQWn9HonN-8" value="Книга забронирована" style="swimlane;fontStyle=1;align=center;verticalAlign=middle;childLayout=stackLayout;horizontal=1;startSize=30;horizontalStack=0;resizeParent=0;resizeLast=1;container=0;fontColor=#000000;collapsible=0;rounded=1;arcSize=30;strokeColor=#ff0000;fillColor=#ffffc0;swimlaneFillColor=#ffffc0;dropTarget=0;fontSize=14;" vertex="1" parent="1">
          <mxGeometry x="720" y="420" width="190" height="60" as="geometry" />
        </mxCell>
        <mxCell id="9cu6b4uCCpkuQWn9HonN-9" value="do/запрос на книгу" style="text;html=1;strokeColor=none;fillColor=none;align=center;verticalAlign=middle;spacingLeft=4;spacingRight=4;whiteSpace=wrap;overflow=hidden;rotatable=0;fontColor=#000000;fontSize=14;" vertex="1" parent="9cu6b4uCCpkuQWn9HonN-8">
          <mxGeometry y="30" width="190" height="30" as="geometry" />
        </mxCell>
        <mxCell id="9cu6b4uCCpkuQWn9HonN-10" value="Книга на руках" style="swimlane;fontStyle=1;align=center;verticalAlign=middle;childLayout=stackLayout;horizontal=1;startSize=30;horizontalStack=0;resizeParent=0;resizeLast=1;container=0;fontColor=#000000;collapsible=0;rounded=1;arcSize=30;strokeColor=#ff0000;fillColor=#ffffc0;swimlaneFillColor=#ffffc0;dropTarget=0;fontSize=14;" vertex="1" parent="1">
          <mxGeometry x="378" y="230" width="160" height="60" as="geometry" />
        </mxCell>
        <mxCell id="9cu6b4uCCpkuQWn9HonN-11" value="do/запрос на книгу" style="text;html=1;strokeColor=none;fillColor=none;align=center;verticalAlign=middle;spacingLeft=4;spacingRight=4;whiteSpace=wrap;overflow=hidden;rotatable=0;fontColor=#000000;fontSize=14;" vertex="1" parent="9cu6b4uCCpkuQWn9HonN-10">
          <mxGeometry y="30" width="160" height="30" as="geometry" />
        </mxCell>
        <mxCell id="9cu6b4uCCpkuQWn9HonN-14" value="" style="endArrow=classic;html=1;rounded=0;exitX=0.5;exitY=1;exitDx=0;exitDy=0;entryX=0.454;entryY=-0.05;entryDx=0;entryDy=0;entryPerimeter=0;" edge="1" parent="1" source="9cu6b4uCCpkuQWn9HonN-3" target="9cu6b4uCCpkuQWn9HonN-5">
          <mxGeometry width="50" height="50" relative="1" as="geometry">
            <mxPoint x="170" y="160" as="sourcePoint" />
            <mxPoint x="220" y="110" as="targetPoint" />
          </mxGeometry>
        </mxCell>
        <mxCell id="9cu6b4uCCpkuQWn9HonN-15" value="" style="endArrow=classic;html=1;rounded=0;exitX=1;exitY=0;exitDx=0;exitDy=0;entryX=0;entryY=0.5;entryDx=0;entryDy=0;" edge="1" parent="1" source="9cu6b4uCCpkuQWn9HonN-6" target="9cu6b4uCCpkuQWn9HonN-10">
          <mxGeometry width="50" height="50" relative="1" as="geometry">
            <mxPoint x="230" y="250" as="sourcePoint" />
            <mxPoint x="280" y="200" as="targetPoint" />
          </mxGeometry>
        </mxCell>
        <mxCell id="9cu6b4uCCpkuQWn9HonN-16" value="&lt;font style=&quot;font-size: 14px;&quot;&gt;Взята читателем&lt;/font&gt;" style="text;html=1;align=center;verticalAlign=middle;resizable=0;points=[];autosize=1;strokeColor=none;fillColor=none;" vertex="1" parent="1">
          <mxGeometry x="224" y="228" width="130" height="30" as="geometry" />
        </mxCell>
        <mxCell id="9cu6b4uCCpkuQWn9HonN-17" value="Книга на руках и забронирована" style="swimlane;fontStyle=1;align=center;verticalAlign=middle;childLayout=stackLayout;horizontal=1;startSize=22;horizontalStack=0;resizeParent=0;resizeLast=1;container=0;fontColor=#000000;collapsible=0;rounded=1;arcSize=30;strokeColor=#ff0000;fillColor=#ffffc0;swimlaneFillColor=#ffffc0;dropTarget=0;fontSize=14;" vertex="1" parent="1">
          <mxGeometry x="688" y="229" width="240" height="60" as="geometry" />
        </mxCell>
        <mxCell id="9cu6b4uCCpkuQWn9HonN-18" value="do/запрос на книгу" style="text;html=1;strokeColor=none;fillColor=none;align=center;verticalAlign=middle;spacingLeft=4;spacingRight=4;whiteSpace=wrap;overflow=hidden;rotatable=0;fontColor=#000000;fontSize=14;" vertex="1" parent="9cu6b4uCCpkuQWn9HonN-17">
          <mxGeometry y="22" width="240" height="38" as="geometry" />
        </mxCell>
        <mxCell id="9cu6b4uCCpkuQWn9HonN-23" value="" style="endArrow=classic;html=1;rounded=0;exitX=1;exitY=0.5;exitDx=0;exitDy=0;entryX=0;entryY=0.5;entryDx=0;entryDy=0;" edge="1" parent="1" source="9cu6b4uCCpkuQWn9HonN-10" target="9cu6b4uCCpkuQWn9HonN-17">
          <mxGeometry width="50" height="50" relative="1" as="geometry">
            <mxPoint x="620" y="200" as="sourcePoint" />
            <mxPoint x="670" y="150" as="targetPoint" />
          </mxGeometry>
        </mxCell>
        <mxCell id="9cu6b4uCCpkuQWn9HonN-24" value="&lt;font style=&quot;font-size: 14px;&quot;&gt;Забронирована&lt;/font&gt;" style="text;whiteSpace=wrap;html=1;" vertex="1" parent="1">
          <mxGeometry x="558" y="231" width="130" height="40" as="geometry" />
        </mxCell>
        <mxCell id="9cu6b4uCCpkuQWn9HonN-25" value="" style="endArrow=classic;html=1;rounded=0;exitX=0.456;exitY=1.011;exitDx=0;exitDy=0;exitPerimeter=0;" edge="1" parent="1" source="9cu6b4uCCpkuQWn9HonN-11">
          <mxGeometry width="50" height="50" relative="1" as="geometry">
            <mxPoint x="440" y="360" as="sourcePoint" />
            <mxPoint x="110" y="290" as="targetPoint" />
            <Array as="points">
              <mxPoint x="450" y="320" />
              <mxPoint x="110" y="320" />
            </Array>
          </mxGeometry>
        </mxCell>
        <mxCell id="9cu6b4uCCpkuQWn9HonN-26" value="&lt;span style=&quot;font-size: 14px;&quot;&gt;Возвращена читателем&lt;/span&gt;" style="text;html=1;align=center;verticalAlign=middle;resizable=0;points=[];autosize=1;strokeColor=none;fillColor=none;" vertex="1" parent="1">
          <mxGeometry x="188" y="288" width="180" height="30" as="geometry" />
        </mxCell>
        <mxCell id="9cu6b4uCCpkuQWn9HonN-28" value="" style="endArrow=classic;html=1;rounded=0;entryX=0.613;entryY=1.011;entryDx=0;entryDy=0;entryPerimeter=0;exitX=0;exitY=0.25;exitDx=0;exitDy=0;" edge="1" parent="1" source="9cu6b4uCCpkuQWn9HonN-8" target="9cu6b4uCCpkuQWn9HonN-11">
          <mxGeometry width="50" height="50" relative="1" as="geometry">
            <mxPoint x="710" y="380" as="sourcePoint" />
            <mxPoint x="760" y="330" as="targetPoint" />
            <Array as="points">
              <mxPoint x="476" y="380" />
              <mxPoint x="476" y="320" />
            </Array>
          </mxGeometry>
        </mxCell>
        <mxCell id="9cu6b4uCCpkuQWn9HonN-29" value="&lt;font style=&quot;font-size: 14px;&quot;&gt;Взята читателем&lt;/font&gt;" style="text;whiteSpace=wrap;html=1;" vertex="1" parent="1">
          <mxGeometry x="490" y="350" width="130" height="40" as="geometry" />
        </mxCell>
        <mxCell id="9cu6b4uCCpkuQWn9HonN-30" value="" style="endArrow=classic;html=1;rounded=0;exitX=0;exitY=0.25;exitDx=0;exitDy=0;entryX=0.152;entryY=1.122;entryDx=0;entryDy=0;entryPerimeter=0;" edge="1" parent="1" source="9cu6b4uCCpkuQWn9HonN-9" target="9cu6b4uCCpkuQWn9HonN-6">
          <mxGeometry width="50" height="50" relative="1" as="geometry">
            <mxPoint x="700" y="460" as="sourcePoint" />
            <mxPoint x="750" y="410" as="targetPoint" />
            <Array as="points">
              <mxPoint x="64" y="460" />
              <mxPoint x="64" y="360" />
            </Array>
          </mxGeometry>
        </mxCell>
        <mxCell id="9cu6b4uCCpkuQWn9HonN-31" value="&lt;font style=&quot;font-size: 14px;&quot;&gt;Не взята из бронирования&lt;/font&gt;" style="text;whiteSpace=wrap;html=1;" vertex="1" parent="1">
          <mxGeometry x="321" y="430" width="185" height="33" as="geometry" />
        </mxCell>
        <mxCell id="9cu6b4uCCpkuQWn9HonN-32" value="" style="endArrow=classic;html=1;rounded=0;exitX=0.391;exitY=1.057;exitDx=0;exitDy=0;entryX=0.321;entryY=-0.008;entryDx=0;entryDy=0;entryPerimeter=0;exitPerimeter=0;" edge="1" parent="1" source="9cu6b4uCCpkuQWn9HonN-18" target="9cu6b4uCCpkuQWn9HonN-8">
          <mxGeometry width="50" height="50" relative="1" as="geometry">
            <mxPoint x="800" y="320" as="sourcePoint" />
            <mxPoint x="798" y="377" as="targetPoint" />
          </mxGeometry>
        </mxCell>
        <mxCell id="9cu6b4uCCpkuQWn9HonN-33" value="&lt;span style=&quot;font-size: 14px;&quot;&gt;Возвращена&lt;/span&gt;&lt;div&gt;&lt;span style=&quot;font-size: 14px;&quot;&gt;&amp;nbsp;читателем&lt;/span&gt;&lt;/div&gt;" style="text;html=1;align=center;verticalAlign=middle;resizable=0;points=[];autosize=1;strokeColor=none;fillColor=none;" vertex="1" parent="1">
          <mxGeometry x="790" y="340" width="100" height="50" as="geometry" />
        </mxCell>
      </root>
    </mxGraphModel>
  </diagram>
</mxfile>
